<svg xmlns="http://www.w3.org/2000/svg" viewBox="0 0 24 24"><defs><style>.a{fill:none;stroke:#323232;stroke-linecap:round;stroke-linejoin:round;stroke-width:1.5px;}</style></defs><path class="a" d="M7.5,12A4.5,4.5,0,1,1,3,16.5,4.5,4.5,0,0,1,7.5,12"/><line class="a" x1="9" y1="17" x2="7" y2="17"/><line class="a" x1="7" y1="17" x2="7" y2="15"/><path class="a" d="M13,21h5a2,2,0,0,0,2-2V8.41421a1,1,0,0,0-.29289-.7071L15.29289,3.29289A1,1,0,0,0,14.58579,3H6A2,2,0,0,0,4,5v5"/><path class="a" d="M20,9H16a2,2,0,0,1-2-2V3"/></svg>