<svg xmlns="http://www.w3.org/2000/svg" viewBox="0 0 24 24"><defs><style>.a{fill:none;stroke:#323232;stroke-linecap:round;stroke-linejoin:round;stroke-width:1.5px;}</style></defs><rect class="a" x="3" y="14" width="7" height="7" rx="1"/><path class="a" d="M10.00892,18.54554l2.23764,1.3793a.5.5,0,0,0,.76236-.42563V15.50079a.5.5,0,0,0-.76236-.42564l-2.23764,1.37929"/><path class="a" d="M16,21h2a2,2,0,0,0,2-2V8.41421a1,1,0,0,0-.29289-.7071L15.29289,3.29289A1,1,0,0,0,14.58579,3H6A2,2,0,0,0,4,5v6"/><path class="a" d="M20,9H16a2,2,0,0,1-2-2V3"/></svg>