<svg xmlns="http://www.w3.org/2000/svg" viewBox="0 0 24 24"><defs><style>.a{fill:none;stroke:#323232;stroke-linecap:round;stroke-linejoin:round;stroke-width:1.5px;}</style></defs><line class="a" x1="12" y1="7" x2="12" y2="6"/><line class="a" x1="15" y1="8" x2="16" y2="7"/><path class="a" d="M17,16V12.5A1.5,1.5,0,0,0,15.5,11h-7A1.5,1.5,0,0,0,7,12.5V16"/><path class="a" d="M10.25,11h3.5a0,0,0,0,1,0,0v2.75a.5.5,0,0,1-.5.5h-2.5a.5.5,0,0,1-.5-.5V11A0,0,0,0,1,10.25,11Z"/><line class="a" x1="9" y1="8" x2="8" y2="7"/><circle class="a" cx="12" cy="12" r="10"/></svg>